<svg width="100" height="40" viewBox="0 0 100 40" fill="none" xmlns="http://www.w3.org/2000/svg">
<path d="M12.16 16.2V11H0V8H20.12V11H12.16V16.2H20.12V19.2H12.16V24.4H20.12V27.4H0V24.4H12.16V19.2H0V16.2H12.16Z" fill="#F96613"/>
<path d="M37.6695 21.04C38.0095 23 37.0495 24.82 35.2595 25.7C33.7295 26.46 31.9595 26.62 30.2495 26.16C28.5395 25.7 27.1595 24.64 26.3195 23.22L28.9195 21.78C29.3195 22.52 30.0195 23.08 30.8595 23.32C31.6995 23.56 32.5795 23.46 33.3195 23.08C34.0595 22.7 34.5795 22.08 34.7395 21.32C34.8995 20.56 34.6795 19.8 34.1595 19.24C33.6395 18.68 32.8795 18.4 32.0795 18.48H30.4195L32.6195 15.68L29.8195 13.62L25.3395 19.12V27.4H22.4595V8H32.4995C34.3395 8 36.0395 8.7 37.2195 9.96C38.3995 11.22 38.9795 12.92 38.8195 14.64C38.6595 16.36 37.7795 17.92 36.3795 18.9C35.6595 19.4 34.8395 19.74 33.9795 19.88L37.6695 21.04ZM32.3395 11H25.3395V16.38H32.3395C32.8595 16.38 33.3795 16.2 33.7795 15.86C34.1795 15.52 34.4395 15.06 34.5195 14.56C34.5995 14.06 34.4995 13.56 34.2395 13.14C33.9795 12.72 33.5795 12.4 33.0995 12.24L32.3395 11Z" fill="#F96613"/>
<path d="M57.6748 19.12C57.6748 23.56 54.1948 27.4 49.3348 27.4C44.4748 27.4 40.9948 23.56 40.9948 19.12C40.9948 14.68 44.4748 10.84 49.3348 10.84C54.1948 10.84 57.6748 14.68 57.6748 19.12ZM43.8748 19.12C43.8748 21.96 46.2948 24.4 49.3348 24.4C52.3748 24.4 54.7948 21.96 54.7948 19.12C54.7948 16.28 52.3748 13.84 49.3348 13.84C46.2948 13.84 43.8748 16.28 43.8748 19.12Z" fill="#F96613"/>
<path d="M78.6369 8L71.3969 19.18L64.1569 8H60.5969L69.6769 22.18V27.4H73.1169V22.18L82.1969 8H78.6369Z" fill="#F96613"/>
<path d="M99.9833 19.72L91.9433 8H88.3833L94.1833 16.9V16.9L87.5833 27.4H91.1433L95.5833 20.44L99.9833 27.4H103.543L97.5833 18.88L103.543 8H99.9833L96.7833 12.88L95.5833 14.68V14.68L99.9833 19.72Z" fill="#F96613"/>
</svg>
